<svg width="24" height="24" viewBox="0 0 24 24" fill="none" xmlns="http://www.w3.org/2000/svg">
<path d="M12.0041 23.5L11.626 23.8272C11.7211 23.937 11.8591 24 12.0042 24C12.1494 24 12.2874 23.9368 12.3823 23.827L12.0041 23.5ZM4.81323 14.9929L5.213 14.6926V14.6926L4.81323 14.9929ZM16.0728 9.65736H15.5728C15.5728 11.6456 13.9707 13.2526 12.0004 13.2526V13.7526V14.2526C14.5283 14.2526 16.5728 12.1926 16.5728 9.65736H16.0728ZM12.0004 13.7526V13.2526C10.03 13.2526 8.42789 11.6456 8.42789 9.65736H7.92789H7.42789C7.42789 12.1926 9.47243 14.2526 12.0004 14.2526V13.7526ZM7.92789 9.65736H8.42789C8.42789 7.66913 10.03 6.06212 12.0004 6.06212V5.56212V5.06212C9.47243 5.06212 7.42789 7.12211 7.42789 9.65736H7.92789ZM12.0004 5.56212V6.06212C13.9707 6.06212 15.5728 7.66913 15.5728 9.65736H16.0728H16.5728C16.5728 7.12211 14.5283 5.06212 12.0004 5.06212V5.56212ZM12.0046 0.5V1C16.6939 1 20.5 4.82341 20.5 9.5457H21H21.5C21.5 4.27639 17.2514 0 12.0046 0V0.5ZM21 9.5457H20.5C20.5 11.4792 19.8623 13.2612 18.787 14.6926L19.1868 14.9929L19.5865 15.2932C20.7877 13.6942 21.5 11.7027 21.5 9.5457H21ZM12.0041 23.5C12.3823 23.827 12.3824 23.827 12.3824 23.8269C12.3824 23.8269 12.3825 23.8268 12.3826 23.8267C12.3828 23.8265 12.3831 23.8261 12.3834 23.8257C12.3842 23.8248 12.3853 23.8236 12.3867 23.8219C12.3897 23.8185 12.394 23.8135 12.3998 23.8068C12.4113 23.7935 12.4283 23.7738 12.4506 23.7479C12.4952 23.6963 12.5608 23.6204 12.6446 23.5232C12.8122 23.3289 13.0529 23.0497 13.3453 22.71C13.93 22.0305 14.7216 21.1086 15.5489 20.1392C17.1966 18.2085 19.0056 16.0666 19.5865 15.2932L19.1868 14.9929L18.787 14.6926C18.2297 15.4344 16.4473 17.546 14.7883 19.4901C13.9621 20.4581 13.1715 21.3789 12.5873 22.0577C12.2952 22.3971 12.0548 22.676 11.8875 22.87C11.8038 22.967 11.7383 23.0428 11.6938 23.0943C11.6716 23.12 11.6546 23.1397 11.6431 23.153C11.6374 23.1596 11.6331 23.1646 11.6302 23.168C11.6287 23.1696 11.6276 23.1709 11.6269 23.1718C11.6265 23.1722 11.6263 23.1725 11.6261 23.1727C11.626 23.1728 11.6259 23.1729 11.6259 23.1729C11.6258 23.173 11.6258 23.173 12.0041 23.5ZM11.9954 0.5V0C6.7486 0 2.5 4.27639 2.5 9.5457H3H3.5C3.5 4.82341 7.30614 1 11.9954 1V0.5ZM3 9.5457H2.5C2.5 11.7027 3.21229 13.6942 4.41346 15.2932L4.81323 14.9929L5.213 14.6926C4.13773 13.2612 3.5 11.4792 3.5 9.5457H3ZM12.0041 23.5C12.3821 23.1728 12.3821 23.1727 12.382 23.1727C12.382 23.1726 12.3819 23.1725 12.3818 23.1724C12.3817 23.1722 12.3814 23.1719 12.381 23.1715C12.3803 23.1707 12.3792 23.1694 12.3778 23.1677C12.3749 23.1644 12.3705 23.1594 12.3648 23.1527C12.3533 23.1395 12.3363 23.1198 12.314 23.094C12.2695 23.0425 12.2039 22.9667 12.1201 22.8697C11.9525 22.6757 11.7118 22.3969 11.4193 22.0575C10.8344 21.3786 10.0427 20.4578 9.21561 19.4898C7.55443 17.5457 5.77015 15.4343 5.213 14.6926L4.81323 14.9929L4.41346 15.2932C4.99453 16.0667 6.80567 18.2088 8.45536 20.1395C9.28366 21.1088 10.0763 22.0307 10.6618 22.7102C10.9546 23.05 11.1956 23.3292 11.3634 23.5235C11.4473 23.6206 11.513 23.6965 11.5576 23.7482C11.58 23.774 11.5971 23.7938 11.6086 23.8071C11.6143 23.8137 11.6187 23.8188 11.6216 23.8221C11.6231 23.8238 11.6242 23.8251 11.6249 23.826C11.6253 23.8264 11.6256 23.8267 11.6258 23.8269C11.6259 23.827 11.6259 23.8271 11.626 23.8272C11.626 23.8272 11.626 23.8272 12.0041 23.5Z" fill="black"/>
</svg>
