<svg width="24" height="24" viewBox="0 0 24 24" fill="none" xmlns="http://www.w3.org/2000/svg">
<path d="M5 4H2C1.44772 4 1 4.44772 1 5V9M5 4V2C5 1.44772 5.44772 1 6 1C6.55228 1 7 1.44772 7 2V4M5 4V5C5 5.55228 5.44772 6 6 6C6.55228 6 7 5.55228 7 5V4M7 4H12H17M19 4H22C22.5523 4 23 4.44772 23 5V9M19 4V5C19 5.55228 18.5523 6 18 6C17.4477 6 17 5.55228 17 5V4M19 4V2C19 1.44772 18.5523 1 18 1C17.4477 1 17 1.44772 17 2V4M1 9V22C1 22.5523 1.44772 23 2 23H22C22.5523 23 23 22.5523 23 22V9M1 9H23M7 16L10.2929 19.2929C10.6834 19.6834 11.3166 19.6834 11.7071 19.2929L18 13" stroke="black" stroke-linecap="round" stroke-linejoin="round"/>
</svg>
