<svg width="24" height="24" viewBox="0 0 24 24" fill="none" xmlns="http://www.w3.org/2000/svg">
<path d="M1 7.17308V17.9615M1 7.17308L6.9375 12.6538M1 7.17308C1 5.42063 2.42064 4 4.17308 4H19.8269C21.5794 4 23 5.42063 23 7.17308M23 7.17308L17.0625 12.6538M23 7.17308V17.9615M1 17.9615L6.9375 12.6538M1 17.9615C1 19.3635 2.13651 20.5 3.53846 20.5H20.4615C21.8635 20.5 23 19.3635 23 17.9615M6.9375 12.6538L9.50557 14.7024C10.9648 15.8665 13.0352 15.8665 14.4944 14.7024L17.0625 12.6538M17.0625 12.6538L23 17.9615" stroke="#003366" stroke-linejoin="round"/>
</svg>
