<svg width="24" height="24" viewBox="0 0 24 24" fill="none" xmlns="http://www.w3.org/2000/svg">
<path fill-rule="evenodd" clip-rule="evenodd" d="M6.61773 1.97499C6.22125 1.04517 5.78087 1.02257 5.40637 1.02257C5.07575 1 4.7219 1 4.3474 1C3.99613 1 3.40077 1.13547 2.89454 1.70267C2.38701 2.26853 1 3.60615 1 6.34779C1 9.09085 2.93845 11.7421 3.20318 12.1047C3.46663 12.4674 6.94832 18.2681 12.4575 20.5129C17.0395 22.3712 17.9656 22.0086 18.9572 21.8944C19.9478 21.7815 22.1524 20.5581 22.6146 19.2431C23.0551 17.952 23.0551 16.8189 22.9233 16.5916C22.7915 16.3659 22.4157 16.229 21.8877 15.9343C21.3362 15.6632 18.6925 14.303 18.1863 14.1211C17.6788 13.9404 17.3262 13.85 16.9737 14.3934C16.6211 14.9606 15.5853 16.2065 15.2561 16.5692C14.9462 16.9318 14.6168 16.977 14.0874 16.7047C13.5373 16.4336 11.7963 15.8439 9.72489 13.9404C8.11575 12.466 7.03614 10.6315 6.70553 10.0884C6.39817 9.52115 6.66162 9.22619 6.94832 8.95394C7.19111 8.70551 7.49976 8.2977 7.7645 7.98025C8.02788 7.66146 8.11575 7.41304 8.31465 7.05041C8.49038 6.68783 8.40251 6.34779 8.27071 6.07682C8.13782 5.82709 7.10329 3.08545 6.61773 1.97499Z" stroke="black" stroke-linejoin="round"/>
</svg>
